<?xml version="1.0" standalone="no"?> <!DOCTYPE svg PUBLIC "-//W3C//DTD SVG 1.0//EN" "http://www.w3.org/TR/2001/REC-SVG-20010904/DTD/svg10.dtd" > <svg xmlns="http://www.w3.org/2000/svg" width="100%" height="100%">
<defs >
<font id="latoblack" horiz-adv-x="1144" ><font-face
    font-family="Lato"
    units-per-em="2000"
    panose-1="2 15 5 2 2 2 4 3 2 3"
    ascent="1974"
    descent="-426"
    alphabetic="0" />
<missing-glyph horiz-adv-x="1123" d="M230 1152Q292 1200 370 1231T553 1263Q631 1263 690 1243T791 1187T853 1100T874 987Q874 932 861 892T829 823T786 773T740 734T701 699T678 661L651 571H439L417 683Q409 722 418 749T447 798T490 837T536 874T572 915T587
968Q587 991 574 1006T525 1022Q493 1022 472 1017T436 1006T407 994T375 989Q332 989 312 1025L230 1152ZM374 331Q374 364 386 392T420 442T471 475T535 487Q568 487 597 475T647 442T681 393T694 331Q694 298 682 270T648 220T597 187T535 175Q500 175 471 187T420
220T386 269T374 331ZM40 1457H1083V0H40V1457ZM117 80H996V1377H117V80Z" />
<glyph unicode=" " glyph-name="null" horiz-adv-x="462" />
<glyph unicode="!" glyph-name="null" horiz-adv-x="584" d="M438 1457V885Q438 793 427 703T398 518H188Q170 612 159 702T148 885V1457H438ZM114 157Q114 193 127 224T164 278T220 314T290 328Q327 328 359 315T415 278T452 224T466 157Q466 121 453 90T415
35T359 -1T290 -14Q252 -14 220 -1T165 35T128 89T114 157Z" />
<glyph unicode="&quot;" glyph-name="null" horiz-adv-x="836" d="M353 1457V1171L325 1013Q316 959 293 931T217 902Q172 902 147 930T111 1013L83 1171V1457H353ZM753 1457V1171L725 1013Q716 959 693 931T617 902Q572 902 547 930T511 1013L483 1171V1457H753Z" />
<glyph unicode="#" glyph-name="null" horiz-adv-x="1160" d="M676 848H510L469 612H635L676 848ZM1153 1064L1129 938Q1120 891 1090 870T993 848H930L889 612H997Q1044 612 1064 585T1073 491L1057 395H859L789 0H645Q624 0 606 10T575 37T557 76T557 123L605
395H440L391 108Q386 79 373 59T341 25T300 6T253 0H115L185 395H97Q50 395 30 422T21 516L37 612H215L256 848H57L81 974Q90 1020 120 1042T217 1064H285L337 1357Q346 1404 382 1430T467 1457H609L539 1064H705L775 1457H913Q937 1457 956 1449T989 1428T1009
1396T1011 1355L959 1064H1153Z" />
<glyph unicode="$" glyph-name="null" horiz-adv-x="1160" d="M648 240Q813 267 813 421Q813 479 777 512T680 569L648 240ZM555 1214Q509 1207 478 1193T427 1160T398 1118T389 1068Q389 1009 427 973T525 911L555 1214ZM708 851Q756 837 804 821T896 783T979
733T1046 667T1091 580T1107 467Q1107 372 1075 289T981 141T829 36T623 -14L611 -138Q609 -166 587 -188T529 -211H415L435 -5Q320 14 216 61T39 176L135 315Q147 332 167 343T211 355Q235 355 260 343T314 313T379 277T460 246L497 623Q425 643 354 670T225 743T133
860T97 1038Q97 1117 129 1192T222 1327T374 1425T580 1470L591 1581Q593 1609 615 1631T673 1654H787L768 1458Q876 1438 953 1393T1085 1297L1009 1186Q992 1161 975 1150T933 1138Q918 1138 898 1145T853 1163T802 1185T743 1206L708 851Z" />
<glyph unicode="%" glyph-name="null" horiz-adv-x="1672" d="M766 1104Q766 1024 737 958T660 845T549 771T416 745Q340 745 277 771T167 844T94 958T68 1104Q68 1187 94 1254T166 1370T276 1444T416 1471Q492 1471 556 1445T667 1370T740 1255T766 1104ZM528
1104Q528 1155 520 1188T496 1242T461 1270T416 1278Q392 1278 372 1270T338 1242T316 1189T308 1104Q308 1056 316 1024T338 973T372 946T416 938Q440 938 460 946T496 973T519 1024T528 1104ZM1224 1411Q1239 1428 1261 1442T1322 1457H1548L450 44Q435 25 413
13T358 0H126L1224 1411ZM1604 342Q1604 262 1575 196T1498 82T1387 8T1254 -18Q1178 -18 1115 8T1005 81T932 195T906 342Q906 425 932 492T1004 608T1114 682T1254 709Q1330 709 1394 683T1505 608T1578 493T1604 342ZM1366 342Q1366 392 1358 425T1334 479T1299
507T1254 515Q1230 515 1210 507T1176 479T1154 426T1146 342Q1146 294 1154 262T1176 211T1210 184T1254 176Q1278 176 1298 184T1334 211T1357 262T1366 342Z" />
<glyph unicode="&amp;" glyph-name="null" horiz-adv-x="1467" d="M476 646Q421 600 398 548T375 436Q375 388 389 349T431 282T495 239T579 223Q646 223 704 240T812 290L476 646ZM1473 0H1167Q1144 0 1126 2T1093 11T1063 28T1033 56L970 122Q875 56 763 20T523
-16Q436 -16 353 14T204 99T99 234T59 411Q59 477 79 536T137 645T226 737T339 810Q291 883 270 953T249 1089Q249 1167 277 1236T360 1358T494 1442T677 1473Q774 1473 848 1445T973 1370T1053 1262T1089 1137L889 1097Q836 1085 811 1139Q788 1191 758 1218T677
1245Q642 1245 616 1232T573 1198T546 1149T537 1091Q537 1065 541 1042T557 994T586 943T633 886L993 507Q1020 566 1037 631T1059 766Q1062 794 1078 810T1121 826H1317Q1317 681 1278 554T1168 322L1473 0Z" />
<glyph unicode="&apos;" glyph-name="null" horiz-adv-x="436" d="M353 1457V1171L325 1013Q316 959 293 931T217 902Q172 902 147 930T111 1013L83 1171V1457H353Z" />
<glyph unicode="(" glyph-name="null" horiz-adv-x="562" d="M326 626Q326 527 337 427T371 230T425 41T498 -136Q511 -160 513 -178T510 -211T494 -235T470 -253L332 -333Q259 -221 207 -105T122 130T74 374T58 626Q58 754 73 878T122 1121T207 1357T332 1586L470
1506Q483 1498 493 1488T509 1464T513 1432T498 1389Q457 1305 426 1213T372 1023T338 825T326 626Z" />
<glyph unicode=")" glyph-name="null" horiz-adv-x="562" d="M236 626Q236 725 225 825T191 1022T136 1212T64 1389Q51 1413 49 1431T52 1464T68 1488T92 1506L230 1586Q375 1360 439 1121T504 626Q504 369 440 131T230 -333L92 -253Q79 -245 69 -235T53 -211T49
-179T64 -136Q104 -52 136 40T190 230T224 427T236 626Z" />
<glyph unicode="*" glyph-name="null" horiz-adv-x="850" d="M622 1201Q602 1190 583 1182T544 1170Q584 1162 622 1138L768 1051L696 932L550 1019Q510 1041 486 1067Q498 1031 498 990V815H352V988Q352 1009 354 1029T363 1067Q350 1053 334 1042T300 1019L154
934L82 1053L228 1138Q267 1161 305 1170Q286 1173 267 1181T228 1201L82 1288L154 1408L300 1320Q340 1298 364 1272Q352 1308 352 1349V1524H498V1351Q498 1330 496 1310T487 1272Q500 1286 516 1297T550 1320L696 1406L768 1286L622 1201Z" />
<glyph unicode="+" glyph-name="null" horiz-adv-x="1160" d="M1075 561H705V163H453V561H85V783H453V1179H705V783H1075V561Z" />
<glyph unicode="," glyph-name="null" horiz-adv-x="480" d="M107 -247Q85 -229 85 -203Q85 -193 92 -182T109 -161Q121 -149 137 -132T169 -93T198 -47T219 6Q185 9 157 23T109 59T78 111T67 176Q67 208 79 235T113 283T166 316T235 328Q280 328 313 313T368
271T400 210T411 137Q411 87 395 31T348 -83T269 -195T161 -295L107 -247Z" />
<glyph unicode="-" glyph-name="null" horiz-adv-x="748" d="M104 733H644V483H104V733Z" />
<glyph unicode="." glyph-name="null" horiz-adv-x="478" d="M63 157Q63 193 76 224T113 278T169 314T239 328Q276 328 308 315T364 278T401 224T415 157Q415 121 402 90T364 35T308 -1T239 -14Q201 -14 169 -1T114 35T77 89T63 157Z" />
<glyph unicode="/" glyph-name="null" horiz-adv-x="958" d="M345 12Q334 -15 317 -36T278 -71T232 -92T183 -99H51L619 1392Q639 1443 680 1470T775 1497H907L345 12Z" />
<glyph unicode="0" glyph-name="null" horiz-adv-x="1160" d="M1120 729Q1120 538 1079 398T966 166T794 29T578 -16Q462 -16 364 29T193 166T81 398T40 729Q40 920 80 1060T193 1292T363 1428T578 1473Q694 1473 793 1429T965 1292T1079 1060T1120 729ZM800 729Q800
880 781 976T731 1128T659 1203T578 1224Q537 1224 498 1204T428 1128T379 977T360 729Q360 577 378 481T427 330T497 254T578 233Q619 233 659 253T730 329T781 481T800 729Z" />
<glyph unicode="1" glyph-name="null" horiz-adv-x="1160" d="M1051 224V0H221V224H501V959Q501 987 502 1015T505 1073L339 935Q317 918 296 915T255 914T221 927T199 947L101 1077L555 1458H811V224H1051Z" />
<glyph unicode="2" glyph-name="null" horiz-adv-x="1160" d="M976 280Q1026 280 1055 253T1084 180V0H60V100Q60 129 72 162T114 222L534 645Q588 699 628 748T694 844T733 939T746 1040Q746 1127 705 1173T578 1220Q509 1220 462 1184T396 1093Q375 1038 341
1020T244 1012L80 1041Q96 1150 141 1231T254 1366T409 1446T596 1473Q704 1473 790 1442T938 1354T1031 1221T1064 1050Q1064 970 1042 902T980 773T890 654T780 537L495 245Q550 262 604 271T704 280H976Z" />
<glyph unicode="3" glyph-name="null" horiz-adv-x="1160" d="M88 1041Q104 1150 149 1231T262 1366T417 1446T604 1473Q712 1473 796 1443T938 1360T1026 1240T1056 1095Q1056 1026 1042 974T1001 883T933 818T840 773Q1082 688 1082 443Q1082 327 1040 241T928
98T764 13T570 -16Q466 -16 385 6T241 76T131 198T48 374L186 430Q240 451 286 441T352 395Q397 312 447 275T566 237Q618 237 656 254T720 299T759 362T772 433Q772 480 766 517T729 582T639 623T470 638V852Q561 852 617 866T703 904T744 964T754 1041Q754 1127
713 1173T586 1220Q517 1220 470 1184T404 1093Q383 1038 349 1020T252 1012L88 1041Z" />
<glyph unicode="4" glyph-name="null" horiz-adv-x="1160" d="M695 566V946Q695 981 697 1021T705 1106L320 566H695ZM1115 566V392Q1115 369 1100 352T1055 335H965V0H695V335H109Q80 335 57 353T27 398L-5 551L669 1457H965V566H1115Z" />
<glyph unicode="5" glyph-name="null" horiz-adv-x="1160" d="M444 944Q485 952 523 955T597 958Q712 958 800 923T948 828T1038 686T1069 511Q1069 394 1028 298T912 131T736 23T511 -16Q440 -16 376 -1T255 39T150 98T63 170L159 298Q174 318 194 328T237 339Q267
339 293 323T351 287T425 251T529 235Q591 235 635 255T706 311T746 394T759 496Q759 602 699 657T529 713Q431 713 337 676L145 728L269 1457H1015V1329Q1015 1297 1005 1271T974 1226T917 1196T833 1185H485L444 944Z" />
<glyph unicode="6" glyph-name="null" horiz-adv-x="1160" d="M578 229Q626 229 667 247T739 296T786 370T804 463Q804 519 788 563T741 637T669 683T574 699Q527 699 488 683T421 635T376 561T360 464Q360 410 373 367T413 293T481 246T578 229ZM528 897Q598
923 684 923Q763 923 840 897T978 817T1076 681T1114 486Q1114 384 1076 293T969 133T801 24T584 -16Q462 -16 365 22T201 130T98 295T62 506Q62 721 228 943L556 1386Q579 1415 622 1436T722 1457H998L566 941L528 897Z" />
<glyph unicode="7" glyph-name="null" horiz-adv-x="1160" d="M1103 1457V1327Q1103 1269 1090 1234T1065 1174L559 102Q538 60 500 30T397 0H171L691 1043Q714 1085 737 1119T790 1185H149Q135 1185 123 1190T101 1205T85 1227T79 1253V1457H1103Z" />
<glyph unicode="8" glyph-name="null" horiz-adv-x="1160" d="M580 218Q632 218 670 234T732 277T768 342T780 423Q780 470 770 509T737 575T676 618T580 634Q523 634 485 619T423 576T390 509T380 423Q380 380 391 343T427 278T489 234T580 218ZM580 1247Q533
1247 501 1232T449 1193T419 1136T410 1070Q410 1032 417 996T443 932T495 887T580 870Q632 870 665 887T717 932T743 996T750 1070Q750 1104 741 1136T712 1192T659 1232T580 1247ZM855 760Q920 737 966 703T1042 625T1086 529T1100 417Q1100 319 1063 239T957
103T792 15T580 -16Q464 -16 368 15T204 102T98 239T60 417Q60 476 74 528T117 625T193 703T305 760Q206 805 157 884T108 1076Q108 1161 143 1233T241 1359T390 1442T580 1473Q683 1473 769 1443T919 1359T1017 1234T1052 1076Q1052 964 1003 885T855 760Z" />
<glyph unicode="9" glyph-name="null" horiz-adv-x="1160" d="M373 1012Q373 794 575 794Q674 794 727 853T781 1012Q781 1065 766 1105T723 1173T656 1214T571 1228Q524 1228 488 1212T426 1166T387 1098T373 1012ZM621 552Q635 569 648 585T672 617Q580 568
463 568Q392 568 321 593T193 671T99 802T63 989Q63 1088 99 1176T203 1330T365 1434T575 1473Q693 1473 786 1437T943 1336T1042 1182T1077 984Q1077 841 1034 728T919 515L605 69Q584 40 542 20T445 0H159L621 552Z" />
<glyph unicode=":" glyph-name="null" horiz-adv-x="530" d="M89 157Q89 193 102 224T139 278T195 314T265 328Q302 328 334 315T390 278T427 224T441 157Q441 121 428 90T390 35T334 -1T265 -14Q227 -14 195 -1T140 35T103 89T89 157ZM89 840Q89 876 102 907T139
961T195 997T265 1011Q302 1011 334 998T390 961T427 907T441 840Q441 804 428 773T390 718T334 682T265 669Q227 669 195 682T140 718T103 772T89 840Z" />
<glyph unicode=";" glyph-name="null" horiz-adv-x="558" d="M148 -247Q126 -229 126 -203Q126 -193 133 -182T150 -161Q162 -149 178 -132T210 -93T239 -47T260 6Q226 9 198 23T150 59T119 111T108 176Q108 208 120 235T154 283T207 316T276 328Q321 328 354
313T409 271T441 210T452 137Q452 87 436 31T389 -83T310 -195T202 -295L148 -247ZM100 840Q100 876 113 907T150 961T206 997T276 1011Q313 1011 345 998T401 961T438 907T452 840Q452 804 439 773T401 718T345 682T276 669Q238 669 206 682T151 718T114 772T100
840Z" />
<glyph unicode="&lt;" glyph-name="null" horiz-adv-x="1160" d="M618 715Q567 690 502 675Q567 660 618 635L902 481Q929 468 940 449T952 406V191L142 614V735L952 1159V944Q952 921 941 902T902 868L618 715Z" />
<glyph unicode="=" glyph-name="null" horiz-adv-x="1160" d="M125 599H1035V377H125V599ZM125 966H1035V743H125V966Z" />
<glyph unicode="&gt;" glyph-name="null" horiz-adv-x="1160" d="M1018 735V614L208 191V406Q208 429 219 448T258 481L542 635Q593 660 658 675Q593 690 542 715L258 868Q231 882 220 901T208 944V1159L1018 735Z" />
<glyph unicode="?" glyph-name="null" horiz-adv-x="943" d="M61 1324Q98 1355 141 1382T235 1429T342 1461T467 1473Q561 1473 636 1448T765 1377T846 1265T875 1119Q875 1043 854 988T801 891T731 820T658 765T598 714T565 658L537 518H325L303 679Q295 728
313 764T362 830T433 886T506 943T563 1011T587 1101Q587 1161 548 1196T439 1232Q386 1232 351 1221T290 1197T245 1172T207 1161Q164 1161 143 1198L61 1324ZM245 157Q245 193 258 224T295 278T351 314T421 328Q458 328 490 315T546 278T583 224T597 157Q597
121 584 90T546 35T490 -1T421 -14Q383 -14 351 -1T296 35T259 89T245 157Z" />
<glyph unicode="@" glyph-name="null" horiz-adv-x="1699" d="M1006 788Q982 791 957 791Q907 791 861 767T781 702T726 607T705 491Q705 432 727 403T791 374Q813 374 834 381T875 404T909 448T935 515L1006 788ZM1173 548Q1160 494 1160 459T1168 404T1196 375T1241
366Q1277 366 1308 391T1363 462T1399 568T1413 701Q1413 825 1376 919T1271 1078T1106 1175T891 1208Q762 1208 654 1160T468 1029T347 834T303 595Q303 435 351 314T485 112T688 -9T943 -50Q1022 -50 1088 -42T1209 -20T1305 11T1377 45Q1409 62 1432 55T1467
20L1509 -88Q1459 -121 1399 -149T1268 -198T1116 -230T943 -242Q755 -242 597 -184T324 -16T144 248T79 595Q79 700 107 801T187 991T312 1155T475 1284T670 1369T891 1399Q988 1399 1080 1377T1255 1313T1407 1210T1527 1072T1605 901T1633 701Q1633 594 1601
500T1510 335T1371 223T1195 182Q1163 182 1133 188T1077 209T1029 247T994 305Q934 239 869 211T729 183Q664 183 615 205T533 268T484 363T467 483Q467 540 481 599T525 712T598 815T703 899T839 956T1009 977Q1053 977 1089 974T1156 964T1214 949T1271 927L1173
548Z" />
<glyph unicode="A" glyph-name="null" horiz-adv-x="1422" d="M911 557L776 956Q761 994 744 1045T710 1157Q695 1096 678 1044T646 954L512 557H911ZM1448 0H1186Q1142 0 1115 20T1074 73L988 327H434L348 73Q337 45 309 23T238 0H-26L538 1457H884L1448 0Z" />
<glyph unicode="B" glyph-name="null" horiz-adv-x="1339" d="M717 255Q784 255 826 272T893 316T926 377T935 446Q935 486 925 518T889 572T821 606T715 618H479V255H717ZM479 1204V844H655Q711 844 756 852T832 880T880 935T897 1023Q897 1075 884 1109T844
1165T776 1195T677 1204H479ZM677 1457Q828 1457 934 1429T1107 1350T1204 1226T1235 1063Q1235 1014 1221 969T1177 884T1100 811T987 754Q1131 719 1200 641T1269 439Q1269 346 1233 266T1128 127T956 34T723 0H141V1457H677Z" />
<glyph unicode="C" glyph-name="null" horiz-adv-x="1311" d="M1123 377Q1135 377 1147 373T1170 357L1304 216Q1216 101 1084 43T770 -16Q604 -16 473 40T250 196T109 432T60 729Q60 892 113 1028T262 1264T492 1418T787 1473Q869 1473 941 1459T1077 1419T1193
1357T1287 1279L1173 1126Q1162 1112 1147 1101T1105 1089Q1087 1089 1071 1097T1037 1116T998 1141T947 1166T878 1186T785 1194Q701 1194 632 1163T512 1073T434 927T406 729Q406 617 436 530T519 384T642 293T792 262Q838 262 876 266T947 281T1009 309T1068
354Q1080 364 1094 370T1123 377Z" />
<glyph unicode="D" glyph-name="null" horiz-adv-x="1522" d="M1463 729Q1463 571 1409 438T1255 207T1017 55T707 0H141V1457H707Q877 1457 1016 1402T1255 1250T1408 1020T1463 729ZM1117 729Q1117 837 1089 924T1009 1071T880 1164T707 1197H481V260H707Q804
260 880 292T1008 385T1089 533T1117 729Z" />
<glyph unicode="E" glyph-name="null" horiz-adv-x="1146" d="M481 1197V857H939V607H481V260H1079V0H141V1457H1079V1197H481Z" />
<glyph unicode="F" glyph-name="null" horiz-adv-x="1133" d="M481 1197V828H979V567H481V0H141V1457H1079V1197H481Z" />
<glyph unicode="G" glyph-name="null" horiz-adv-x="1445" d="M841 755H1359V140Q1247 58 1121 21T856 -16Q676 -16 529 40T276 196T114 432T57 729Q57 892 111 1028T265 1264T508 1418T827 1473Q918 1473 998 1458T1145 1417T1269 1355T1369 1277L1271 1128Q1248
1093 1212 1085T1133 1103Q1093 1127 1058 1144T985 1173T907 1189T815 1194Q720 1194 644 1161T515 1066T432 920T403 729Q403 613 435 523T525 371T665 277T846 244Q907 244 956 256T1053 288V509H909Q877 509 859 526T841 569V755Z" />
<glyph unicode="H" glyph-name="null" horiz-adv-x="1554" d="M1413 1457V0H1073V616H481V0H141V1457H481V848H1073V1457H1413Z" />
<glyph unicode="I" glyph-name="null" horiz-adv-x="622" d="M481 0H141V1457H481V0Z" />
<glyph unicode="J" glyph-name="null" horiz-adv-x="871" d="M744 528Q744 406 714 306T622 135T467 24T248 -16Q191 -16 136 -10T20 10L38 207Q41 233 59 249T110 265Q127 265 152 260T212 254Q261 254 297 267T358 312T394 395T406 521V1457H744V528Z" />
<glyph unicode="K" glyph-name="null" horiz-adv-x="1413" d="M479 867H533Q608 867 641 914L969 1390Q998 1428 1031 1442T1115 1457H1409L977 868Q931 807 878 780Q916 766 947 741T1005 676L1445 0H1143Q1114 0 1094 4T1058 16T1032 35T1011 62L681 569Q663
597 636 608T561 620H479V0H141V1457H479V867Z" />
<glyph unicode="L" glyph-name="null" horiz-adv-x="1050" d="M1019 270V0H141V1457H479V270H1019Z" />
<glyph unicode="M" glyph-name="null" horiz-adv-x="1920" d="M1779 1457V0H1481V838Q1481 867 1482 901T1488 970L1101 221Q1083 186 1053 168T983 150H937Q898 150 868 168T819 221L432 972Q435 936 437 902T439 838V0H141V1457H399Q421 1457 437 1456T467 1450T490
1435T511 1405L886 666Q906 628 924 587T960 503Q977 547 995 589T1035 669L1409 1405Q1419 1424 1429 1434T1453 1450T1482 1456T1521 1457H1779Z" />
<glyph unicode="N" glyph-name="null" horiz-adv-x="1554" d="M1413 1457V0H1237Q1198 0 1172 12T1119 56L432 925Q436 886 437 850T439 781V0H141V1457H319Q341 1457 356 1455T383 1448T406 1432T431 1405L1124 530Q1119 572 1117 611T1115 686V1457H1413Z" />
<glyph unicode="O" glyph-name="null" horiz-adv-x="1629" d="M1571 729Q1571 571 1517 435T1363 199T1125 41T815 -16Q645 -16 505 41T266 198T112 435T57 729Q57 887 111 1023T265 1259T505 1416T815 1473Q985 1473 1124 1416T1363 1258T1516 1022T1571 729ZM1225
729Q1225 837 1197 923T1117 1070T988 1162T815 1194Q717 1194 641 1162T512 1070T431 924T403 729Q403 620 431 534T511 387T640 296T815 264Q912 264 988 295T1116 387T1197 533T1225 729Z" />
<glyph unicode="P" glyph-name="null" horiz-adv-x="1272" d="M655 742Q787 742 845 805T903 981Q903 1031 888 1072T843 1142T766 1188T655 1204H479V742H655ZM655 1457Q809 1457 919 1421T1101 1320T1207 1169T1241 981Q1241 872 1206 781T1099 625T917 524T655
487H479V0H141V1457H655Z" />
<glyph unicode="Q" glyph-name="null" horiz-adv-x="1630" d="M404 729Q404 620 432 534T512 387T641 296T816 264Q913 264 989 295T1117 387T1198 533T1226 729Q1226 837 1198 923T1118 1070T989 1162T816 1194Q718 1194 642 1162T513 1070T432 924T404 729ZM1654
-273H1376Q1316 -273 1269 -258T1180 -200L999 3Q914 -16 816 -16Q646 -16 506 41T267 198T113 435T58 729Q58 887 112 1023T266 1259T506 1416T816 1473Q986 1473 1125 1416T1364 1258T1517 1022T1572 729Q1572 635 1553 549T1497 386T1407 245T1285 130L1654
-273Z" />
<glyph unicode="R" glyph-name="null" horiz-adv-x="1315" d="M615 772Q684 772 732 789T812 838T857 910T871 1000Q871 1096 809 1150T615 1204H479V772H615ZM1333 0H1027Q942 0 905 64L663 487Q646 514 625 526T565 539H479V0H141V1457H615Q773 1457 884 1425T1066
1334T1169 1197T1201 1025Q1201 954 1182 891T1126 775T1035 679T909 610Q942 593 971 568T1023 507L1333 0Z" />
<glyph unicode="S" glyph-name="null" horiz-adv-x="1108" d="M946 1161Q931 1137 915 1125T872 1113Q849 1113 823 1127T763 1160T686 1192T588 1207Q493 1207 447 1167T400 1057Q400 1013 428 984T501 934T605 896T725 857T844 806T948 732T1022 623T1050 467Q1050
366 1015 278T914 125T750 22T528 -16Q460 -16 390 -2T253 37T129 98T28 176L128 334Q140 351 159 362T202 374Q232 374 262 355T331 313T420 271T538 252Q630 252 681 292T732 421Q732 472 704 504T631 557T527 594T408 629T289 677T186 752T112 868T84 1040Q84
1122 117 1200T214 1339T371 1436T584 1473Q651 1473 714 1463T835 1432T941 1383T1030 1318L946 1161Z" />
<glyph unicode="T" glyph-name="null" horiz-adv-x="1218" d="M1188 1189H778V0H440V1189H30V1457H1188V1189Z" />
<glyph unicode="U" glyph-name="null" horiz-adv-x="1498" d="M749 267Q817 267 870 289T961 354T1017 456T1037 594V1457H1375V594Q1375 460 1332 348T1207 155T1010 29T749 -16Q603 -16 487 29T290 155T166 348T123 594V1457H461V595Q461 518 480 458T537 355T627
290T749 267Z" />
<glyph unicode="V" glyph-name="null" horiz-adv-x="1422" d="M1448 1457L864 0H558L-26 1457H246Q290 1457 317 1437T358 1384L640 604Q660 553 679 493T715 366Q729 432 746 492T784 604L1064 1384Q1075 1412 1103 1434T1174 1457H1448Z" />
<glyph unicode="W" glyph-name="null" horiz-adv-x="2130" d="M2126 1457L1676 0H1370L1096 903Q1088 924 1081 949T1067 1003Q1060 975 1053 950T1038 903L760 0H454L4 1457H288Q332 1457 361 1437T400 1384L600 624Q609 588 618 546T636 457Q654 551 680 624L916
1384Q925 1412 954 1434T1026 1457H1126Q1170 1457 1197 1437T1238 1384L1472 624Q1498 554 1516 465Q1524 510 1532 549T1550 624L1750 1384Q1758 1413 1788 1435T1860 1457H2126Z" />
<glyph unicode="X" glyph-name="null" horiz-adv-x="1380" d="M1391 0H1053Q1020 0 1000 16T967 54L675 564Q667 542 657 526L385 54Q371 34 352 17T303 0H-13L456 750L5 1457H343Q376 1457 391 1449T419 1420L709 929Q714 942 720 954T735 979L989 1415Q1003
1437 1018 1447T1057 1457H1381L924 764L1391 0Z" />
<glyph unicode="Y" glyph-name="null" horiz-adv-x="1340" d="M839 554V0H501V554L-27 1457H271Q315 1457 340 1437T383 1384L589 960Q615 910 636 867T673 781Q688 824 707 867T753 960L957 1384Q964 1397 974 1410T997 1433T1028 1450T1067 1457H1367L839 554Z" />
<glyph unicode="Z" glyph-name="null" horiz-adv-x="1218" d="M1174 1335Q1174 1309 1166 1284T1142 1237L458 260H1152V0H28V130Q28 153 36 175T58 217L744 1197H84V1457H1174V1335Z" />
<glyph unicode="[" glyph-name="null" horiz-adv-x="641" d="M408 1364V-131H518Q553 -131 575 -153T598 -205V-324H150V1557H598V1439Q598 1408 576 1386T518 1364H408Z" />
<glyph unicode="\" glyph-name="null" horiz-adv-x="958" d="M51 1497H183Q237 1497 278 1470T339 1392L907 -99H775Q751 -99 727 -92T681 -71T641 -36T613 12L51 1497Z" />
<glyph unicode="]" glyph-name="null" horiz-adv-x="641" d="M491 -324H43V-205Q43 -175 65 -153T123 -131H233V1364H123Q88 1364 66 1386T43 1439V1557H491V-324Z" />
<glyph unicode="^" glyph-name="null" horiz-adv-x="1160" d="M1092 669H864Q837 669 819 682T790 717L636 1053Q618 1090 604 1123T579 1190Q558 1125 526 1053L386 717Q377 696 358 683T308 669H68L474 1457H676L1092 669Z" />
<glyph unicode="_" glyph-name="null" horiz-adv-x="946" d="M867 -108V-302H79V-108H867Z" />
<glyph unicode="`" glyph-name="null" horiz-adv-x="800" d="M322 1473Q369 1473 392 1458T432 1413L568 1168H392Q357 1168 336 1177T292 1210L32 1473H322Z" />
<glyph unicode="a" glyph-name="null" horiz-adv-x="1035" d="M640 422Q547 418 487 406T392 376T344 335T330 285Q330 232 359 211T444 189Q504 189 549 210T640 278V422ZM82 893Q176 976 290 1016T536 1057Q630 1057 705 1027T833 942T914 812T942 648V0H800Q756
0 734 12T696 62L674 119Q635 86 599 61T525 19T443 -7T346 -16Q275 -16 217 2T119 57T56 146T34 270Q34 326 62 383T159 488T345 568T640 604V648Q640 739 603 779T496 820Q441 820 406 808T344 781T290 754T228 742Q196 742 174 758T138 796L82 893Z" />
<glyph unicode="b" glyph-name="null" horiz-adv-x="1149" d="M415 282Q450 244 491 228T574 212Q618 212 655 228T718 282T760 381T775 533Q775 611 764 665T730 754T674 804T597 820Q540 820 498 795T415 722V282ZM415 927Q475 984 546 1018T706 1053Q794 1053
866 1017T989 915T1067 754T1095 544Q1095 418 1063 315T973 139T833 25T654 -16Q607 -16 570 -7T502 18T446 58T396 108L385 56Q377 24 359 12T311 0H105V1497H415V927Z" />
<glyph unicode="c" glyph-name="null" horiz-adv-x="973" d="M867 791Q853 774 840 764T803 754Q780 754 762 765T720 789T666 814T589 825Q532 825 491 804T422 744T382 649T369 521Q369 372 426 292T585 212Q639 212 670 225T724 255T764 286T811 300Q848 300
867 273L957 162Q909 107 856 73T748 19T636 -8T527 -16Q432 -16 346 20T194 124T90 293T51 521Q51 633 84 730T183 899T345 1012T569 1053Q691 1053 783 1014T949 900L867 791Z" />
<glyph unicode="d" glyph-name="null" horiz-adv-x="1149" d="M734 759Q699 798 658 813T572 829Q529 829 493 812T431 758T389 660T374 515Q374 433 386 377T419 287T471 237T538 222Q572 222 599 228T650 247T693 277T734 320V759ZM1044 1497V0H852Q794 0 776
52L752 131Q721 98 687 71T614 25T529 -5T430 -16Q349 -16 280 20T161 124T83 290T54 515Q54 631 86 730T176 902T317 1016T498 1057Q579 1057 634 1034T734 972V1497H1044Z" />
<glyph unicode="e" glyph-name="null" horiz-adv-x="1078" d="M750 643Q750 680 741 715T710 777T653 822T568 839Q480 839 430 789T364 643H750ZM360 463Q375 333 439 275T604 216Q658 216 697 229T766 258T822 287T876 300Q913 300 932 273L1022 162Q974 107
919 73T805 19T688 -8T576 -16Q467 -16 372 19T205 125T92 299T50 541Q50 645 85 738T187 901T348 1012T562 1053Q665 1053 750 1021T897 928T993 779T1028 578Q1028 543 1025 521T1014 486T993 468T958 463H360Z" />
<glyph unicode="f" glyph-name="null" horiz-adv-x="732" d="M182 0V824L114 838Q79 846 58 863T36 913V1035H182V1094Q182 1183 210 1255T292 1378T423 1457T598 1485Q636 1485 668 1481T735 1466L729 1315Q728 1299 721 1289T703 1272T678 1262T652 1259Q611
1259 579 1251T526 1223T493 1169T482 1084V1035H725V823H492V0H182Z" />
<glyph unicode="g" glyph-name="null" horiz-adv-x="1071" d="M500 573Q577 573 611 611T646 711Q646 774 612 810T500 846Q423 846 389 810T354 711Q354 681 362 656T389 613T434 584T500 573ZM740 -38Q740 -1 707 15T621 39T503 47T372 55Q343 35 325 11T306
-45Q306 -67 315 -85T349 -116T413 -136T516 -144Q583 -144 626 -136T694 -114T730 -81T740 -38ZM1046 1005V892Q1046 866 1032 851T982 828L907 811Q913 789 916 766T920 718Q920 640 888 578T799 473T665 406T500 382Q476 382 453 383T408 389Q374 368 374 342Q374
316 402 305T476 289T580 283T700 276T819 257T924 215T998 138T1026 14Q1026 -56 992 -123T892 -242T730 -325T510 -357Q388 -357 300 -334T153 -274T66 -187T38 -85Q38 -16 78 30T190 104Q152 127 130 163T108 256Q108 279 116 304T141 354T185 401T247 440Q166
483 119 553T72 718Q72 796 105 858T195 964T331 1031T500 1055Q632 1055 734 1005H1046Z" />
<glyph unicode="h" glyph-name="null" horiz-adv-x="1140" d="M415 946Q471 994 536 1023T693 1053Q778 1053 843 1024T954 942T1022 817T1045 659V0H735V659Q735 735 700 777T597 820Q546 820 502 799T415 740V0H105V1497H415V946Z" />
<glyph unicode="i" glyph-name="null" horiz-adv-x="534" d="M422 1037V0H112V1037H422ZM454 1321Q454 1284 439 1252T398 1195T338 1156T264 1141Q226 1141 193 1155T135 1194T95 1251T80 1321Q80 1359 94 1392T134 1450T193 1489T264 1503Q303 1503 337 1489T398
1450T439 1392T454 1321Z" />
<glyph unicode="j" glyph-name="null" horiz-adv-x="534" d="M422 1037V-2Q422 -75 404 -139T343 -252T231 -329T58 -357Q20 -357 -12 -353T-80 -339L-70 -176Q-68 -155 -56 -145T-8 -135Q28 -135 51 -129T87 -108T106 -68T112 -2V1037H422ZM454 1321Q454 1284
439 1252T398 1195T338 1156T264 1141Q226 1141 193 1155T135 1194T95 1251T80 1321Q80 1359 94 1392T134 1450T193 1489T264 1503Q303 1503 337 1489T398 1450T439 1392T454 1321Z" />
<glyph unicode="k" glyph-name="null" horiz-adv-x="1117" d="M415 1497V658H461Q490 658 505 666T535 695L731 987Q749 1012 772 1024T831 1037H1115L847 668Q809 618 757 586Q780 569 799 547T835 496L1127 0H847Q812 0 787 11T745 52L549 419Q535 444 520 451T475
459H415V0H105V1497H415Z" />
<glyph unicode="l" glyph-name="null" horiz-adv-x="520" d="M415 1497V0H105V1497H415Z" />
<glyph unicode="m" glyph-name="null" horiz-adv-x="1702" d="M105 0V1037H297Q355 1037 373 985L390 929Q416 956 444 978T504 1017T574 1043T657 1053Q751 1053 812 1005T906 875Q932 923 969 957T1050 1012T1142 1043T1239 1053Q1328 1053 1397 1027T1512 950T1583
826T1607 659V0H1297V659Q1297 820 1159 820Q1096 820 1055 779T1013 659V0H703V659Q703 748 668 784T565 820Q523 820 486 801T415 750V0H105Z" />
<glyph unicode="n" glyph-name="null" horiz-adv-x="1140" d="M391 925Q421 953 453 977T521 1017T600 1043T693 1053Q778 1053 843 1024T954 942T1022 817T1045 659V0H735V659Q735 735 700 777T597 820Q546 820 502 799T415 740V0H105V1037H297Q355 1037 373
985L391 925Z" />
<glyph unicode="o" glyph-name="null" horiz-adv-x="1162" d="M583 1053Q701 1053 798 1016T964 910T1072 743T1111 521Q1111 397 1073 298T965 129T798 22T583 -16Q464 -16 367 21T199 128T90 297T51 521Q51 644 89 742T198 910T366 1016T583 1053ZM583 214Q690
214 740 289T791 519Q791 673 741 748T583 823Q473 823 422 748T371 519Q371 365 422 290T583 214Z" />
<glyph unicode="p" glyph-name="null" horiz-adv-x="1150" d="M415 282Q450 244 491 228T577 212Q620 212 656 229T718 283T760 381T775 527Q775 609 763 665T730 755T678 805T611 820Q543 820 499 795T415 722V282ZM396 909Q457 974 534 1015T719 1057Q800 1057
869 1021T988 917T1066 751T1095 527Q1095 410 1063 311T972 139T832 25T651 -16Q570 -16 515 7T415 69V-329H105V1037H297Q355 1037 373 985L396 909Z" />
<glyph unicode="q" glyph-name="null" horiz-adv-x="1149" d="M734 759Q699 797 658 813T572 829Q529 829 493 812T431 758T389 660T374 515Q374 433 386 377T419 287T471 237T538 222Q572 222 599 228T650 247T693 277T734 320V759ZM1044 1037V-329H734V113Q675
55 602 20T430 -16Q349 -16 280 20T161 124T83 290T54 515Q54 631 86 730T176 902T317 1016T498 1057Q545 1057 583 1049T652 1026T711 990T763 944L776 985Q794 1037 852 1037H1044Z" />
<glyph unicode="r" glyph-name="null" horiz-adv-x="763" d="M395 877Q443 961 505 1009T649 1057Q719 1057 763 1024L743 796Q738 774 727 766T695 758Q687 758 674 759T647 761T619 764T592 766Q524 766 484 730T415 630V0H105V1037H289Q312 1037 327 1033T353
1021T369 998T379 964L395 877Z" />
<glyph unicode="s" glyph-name="null" horiz-adv-x="891" d="M764 810Q752 791 739 783T704 775Q682 775 660 784T613 805T555 825T482 835Q423 835 392 813T360 750Q360 721 380 702T435 669T512 641T600 612T688 575T765 522T819 445T840 337Q840 260 812 195T729
83T592 10T404 -16Q351 -16 298 -6T196 21T104 61T32 112L104 226Q116 246 134 257T182 269Q209 269 230 257T277 231T335 205T420 193Q456 193 481 200T521 221T543 250T550 283Q550 314 529 334T474 368T397 395T308 424T220 462T142 519T87 604T66 725Q66 791
91 850T168 955T296 1026T476 1053Q532 1053 584 1043T683 1015T767 973T834 919L764 810Z" />
<glyph unicode="t" glyph-name="null" horiz-adv-x="768" d="M476 -16Q402 -16 346 5T251 66T192 162T172 287V823H84Q60 823 43 838T26 884V1005L191 1037L252 1290Q264 1338 320 1338H482V1035H739V823H482V308Q482 272 499 249T550 225Q567 225 578 228T598
236T614 244T632 248Q646 248 654 242T672 221L766 74Q706 29 631 7T476 -16Z" />
<glyph unicode="u" glyph-name="null" horiz-adv-x="1140" d="M1035 1037V0H843Q785 0 767 52L749 112Q719 83 687 60T619 20T540 -6T447 -16Q362 -16 297 13T186 96T118 221T95 379V1037H405V379Q405 302 440 260T543 218Q594 218 638 239T725 298V1037H1035Z" />
<glyph unicode="v" glyph-name="null" horiz-adv-x="1078" d="M1082 1037L680 0H398L-4 1037H254Q287 1037 309 1022T340 983L484 518Q503 461 517 407T543 299Q565 407 604 518L754 983Q762 1006 784 1021T836 1037H1082Z" />
<glyph unicode="w" glyph-name="null" horiz-adv-x="1636" d="M1631 1037L1309 0H1057Q1037 0 1023 12T1001 52L853 569Q842 604 834 638T818 707Q811 672 803 637T783 567L633 52Q618 0 567 0H327L5 1037H253Q286 1037 308 1022T339 983L443 518Q456 465 466
416T484 316Q497 366 511 415T543 518L673 984Q681 1007 703 1022T755 1038H893Q926 1038 948 1023T979 984L1103 518Q1118 465 1132 415T1159 314Q1167 364 1178 414T1203 518L1313 983Q1321 1006 1343 1021T1395 1037H1631Z" />
<glyph unicode="x" glyph-name="null" horiz-adv-x="1088" d="M1097 0H799Q766 0 746 16T713 54L528 372Q523 355 516 340T501 312L349 54Q335 34 316 17T267 0H-9L339 536L5 1037H303Q336 1037 351 1029T379 1000L564 693Q570 711 579 728T599 764L731 995Q745
1017 760 1027T799 1037H1083L749 550L1097 0Z" />
<glyph unicode="y" glyph-name="null" horiz-adv-x="1076" d="M1090 1037L536 -269Q522 -300 502 -314T438 -329H206L406 91L-8 1037H266Q302 1037 321 1021T350 983L520 536Q544 475 559 411Q570 443 581 475T604 538L758 983Q767 1006 790 1021T840 1037H1090Z" />
<glyph unicode="z" glyph-name="null" horiz-adv-x="932" d="M876 913Q876 881 865 851T836 802L403 230H866V0H46V126Q46 145 56 174T86 228L523 807H74V1037H876V913Z" />
<glyph unicode="{" glyph-name="null" horiz-adv-x="621" d="M572 1423Q572 1407 565 1396T548 1378T527 1368T508 1364Q445 1364 416 1325T386 1217Q386 1162 390 1113T400 1019T409 929T414 840Q414 802 404 767T374 703T323 651T254 617Q293 605 323 583T373
531T404 466T414 393Q414 348 410 304T400 215T391 120T386 16Q386 -53 415 -92T508 -131Q516 -131 527 -134T548 -145T565 -163T572 -190V-324H520Q414 -324 338 -299T213 -226T140 -112T116 35Q116 81 121 127T134 218T146 308T152 397Q152 457 129 493T46 530V703Q76
703 96 713T129 740T146 782T152 836Q152 880 147 925T134 1015T122 1106T116 1198Q116 1279 139 1345T212 1459T338 1531T520 1557H572V1423Z" />
<glyph unicode="|" glyph-name="null" horiz-adv-x="540" d="M150 1557H390V-340H150V1557Z" />
<glyph unicode="}" glyph-name="null" horiz-adv-x="621" d="M575 530Q515 530 492 494T469 397Q469 353 474 308T487 218T499 127T505 35Q505 -46 482 -112T409 -225T283 -298T101 -324H49V-190Q49 -174 56 -163T73 -145T94 -135T113 -131Q176 -131 205 -92T235
16Q235 71 231 120T221 214T212 304T207 393Q207 430 217 465T247 530T298 582T367 617Q328 629 298 651T248 702T217 767T207 840Q207 885 211 929T221 1018T230 1113T235 1217Q235 1286 206 1325T113 1364Q105 1364 94 1367T73 1378T56 1396T49 1423V1557H101Q207
1557 283 1532T408 1459T481 1346T505 1198Q505 1152 500 1106T487 1015T475 925T469 836Q469 807 474 783T492 741T524 713T575 703V530Z" />
<glyph unicode="~" glyph-name="null" horiz-adv-x="1160" d="M733 677Q781 677 807 708T833 799H1083Q1083 714 1061 646T996 531T893 458T753 432Q700 432 654 443T567 469T494 495T433 507Q385 507 359 476T333 385H83Q83 470 105 538T170 653T273 726T413
752Q466 752 512 741T599 715T672 689T733 677Z" />
</font>
</defs>
</svg>
